<mxfile host="app.diagrams.net" modified="2021-06-24T23:34:50.919Z" agent="5.0 (Macintosh; Intel Mac OS X 10_15_7) AppleWebKit/605.1.15 (KHTML, like Gecko) Version/14.1.1 Safari/605.1.15" etag="C3TdURj6HvT21-_aTfBq" version="14.8.1" type="github">
  <diagram id="C5RBs43oDa-KdzZeNtuy" name="Page-1">
    <mxGraphModel dx="600" dy="400" grid="1" gridSize="10" guides="1" tooltips="1" connect="1" arrows="1" fold="1" page="1" pageScale="1" pageWidth="827" pageHeight="1169" math="0" shadow="0">
      <root>
        <mxCell id="WIyWlLk6GJQsqaUBKTNV-0" />
        <mxCell id="WIyWlLk6GJQsqaUBKTNV-1" parent="WIyWlLk6GJQsqaUBKTNV-0" />
        <mxCell id="vK09h9GuY7F9pNQoq2TA-5" style="edgeStyle=orthogonalEdgeStyle;rounded=0;orthogonalLoop=1;jettySize=auto;html=1;exitX=0.5;exitY=1;exitDx=0;exitDy=0;entryX=0.5;entryY=0;entryDx=0;entryDy=0;" edge="1" parent="WIyWlLk6GJQsqaUBKTNV-1" source="vK09h9GuY7F9pNQoq2TA-0" target="vK09h9GuY7F9pNQoq2TA-2">
          <mxGeometry relative="1" as="geometry" />
        </mxCell>
        <mxCell id="vK09h9GuY7F9pNQoq2TA-0" value="Inicio" style="ellipse;whiteSpace=wrap;html=1;" vertex="1" parent="WIyWlLk6GJQsqaUBKTNV-1">
          <mxGeometry x="240" y="90" width="70" height="30" as="geometry" />
        </mxCell>
        <mxCell id="vK09h9GuY7F9pNQoq2TA-1" value="Fin" style="ellipse;whiteSpace=wrap;html=1;" vertex="1" parent="WIyWlLk6GJQsqaUBKTNV-1">
          <mxGeometry x="240" y="520" width="70" height="30" as="geometry" />
        </mxCell>
        <mxCell id="vK09h9GuY7F9pNQoq2TA-6" style="edgeStyle=orthogonalEdgeStyle;rounded=0;orthogonalLoop=1;jettySize=auto;html=1;exitX=0.5;exitY=1;exitDx=0;exitDy=0;entryX=0.5;entryY=0;entryDx=0;entryDy=0;" edge="1" parent="WIyWlLk6GJQsqaUBKTNV-1" source="vK09h9GuY7F9pNQoq2TA-2" target="vK09h9GuY7F9pNQoq2TA-3">
          <mxGeometry relative="1" as="geometry" />
        </mxCell>
        <mxCell id="vK09h9GuY7F9pNQoq2TA-2" value="Leer num1" style="shape=parallelogram;perimeter=parallelogramPerimeter;whiteSpace=wrap;html=1;fixedSize=1;" vertex="1" parent="WIyWlLk6GJQsqaUBKTNV-1">
          <mxGeometry x="215" y="140" width="120" height="30" as="geometry" />
        </mxCell>
        <mxCell id="vK09h9GuY7F9pNQoq2TA-10" style="edgeStyle=orthogonalEdgeStyle;rounded=0;orthogonalLoop=1;jettySize=auto;html=1;exitX=0.5;exitY=1;exitDx=0;exitDy=0;entryX=0.5;entryY=0;entryDx=0;entryDy=0;" edge="1" parent="WIyWlLk6GJQsqaUBKTNV-1" source="vK09h9GuY7F9pNQoq2TA-3" target="vK09h9GuY7F9pNQoq2TA-7">
          <mxGeometry relative="1" as="geometry" />
        </mxCell>
        <mxCell id="vK09h9GuY7F9pNQoq2TA-3" value="Leer num2" style="shape=parallelogram;perimeter=parallelogramPerimeter;whiteSpace=wrap;html=1;fixedSize=1;" vertex="1" parent="WIyWlLk6GJQsqaUBKTNV-1">
          <mxGeometry x="215" y="190" width="120" height="30" as="geometry" />
        </mxCell>
        <mxCell id="vK09h9GuY7F9pNQoq2TA-11" style="edgeStyle=orthogonalEdgeStyle;rounded=0;orthogonalLoop=1;jettySize=auto;html=1;exitX=0.5;exitY=1;exitDx=0;exitDy=0;entryX=0.5;entryY=0;entryDx=0;entryDy=0;" edge="1" parent="WIyWlLk6GJQsqaUBKTNV-1" source="vK09h9GuY7F9pNQoq2TA-7" target="vK09h9GuY7F9pNQoq2TA-9">
          <mxGeometry relative="1" as="geometry" />
        </mxCell>
        <mxCell id="vK09h9GuY7F9pNQoq2TA-7" value="sum = num1+num2&lt;br&gt;rest = num1-num2&lt;br&gt;mult = num1*num2&lt;br&gt;div = num1/num2&lt;br&gt;mod = num1%num2" style="whiteSpace=wrap;html=1;aspect=fixed;" vertex="1" parent="WIyWlLk6GJQsqaUBKTNV-1">
          <mxGeometry x="215" y="240" width="120" height="120" as="geometry" />
        </mxCell>
        <mxCell id="vK09h9GuY7F9pNQoq2TA-12" style="edgeStyle=orthogonalEdgeStyle;rounded=0;orthogonalLoop=1;jettySize=auto;html=1;exitX=0.5;exitY=1;exitDx=0;exitDy=0;entryX=0.5;entryY=0;entryDx=0;entryDy=0;" edge="1" parent="WIyWlLk6GJQsqaUBKTNV-1" source="vK09h9GuY7F9pNQoq2TA-9" target="vK09h9GuY7F9pNQoq2TA-1">
          <mxGeometry relative="1" as="geometry" />
        </mxCell>
        <mxCell id="vK09h9GuY7F9pNQoq2TA-9" value="sum = num1+num2&lt;br&gt;rest = num1-num2&lt;br&gt;mult = num1*num2&lt;br&gt;div = num1/num2&lt;br&gt;mod = num1%num2" style="shape=parallelogram;perimeter=parallelogramPerimeter;whiteSpace=wrap;html=1;fixedSize=1;" vertex="1" parent="WIyWlLk6GJQsqaUBKTNV-1">
          <mxGeometry x="200" y="380" width="150" height="120" as="geometry" />
        </mxCell>
      </root>
    </mxGraphModel>
  </diagram>
</mxfile>
